# xmcd
#
# Track frame offsets:
#	150
#	15112
#	28899
#	44766
#	59048
#	74115
#	88942
#	104524
#	118671
#	130853
#	145465
#
# Disc length: 2176 seconds
#
# Revision: 0
# Processed by: cddbd v1.5.2PL0 Copyright (c) Steve Scherf et al.
# Submitted via: EasyCDDAExtractor 11.5.0.1
#
DISCID=ad087e0b
DTITLE=Travis Logan - What This Country Needs
DYEAR=1900
DGENRE=
TTITLE0=Heaven In My Woman's Eyes
TTITLE1=Don't You Ever Get Tired
TTITLE2=I'm No Stranger To The Rain
TTITLE3=What This Country Needs
TTITLE4=The Box
TTITLE5=Honky-tonkin' Fool
TTITLE6=What's A Memory Like You
TTITLE7=Country Is
TTITLE8=I've Been Around Enough
TTITLE9=The Right Place
TTITLE10=Red And Rio Grande
EXTD=
EXTT0=
EXTT1=
EXTT2=
EXTT3=
EXTT4=
EXTT5=
EXTT6=
EXTT7=
EXTT8=
EXTT9=
EXTT10=
PLAYORDER=
